<svg width="42" height="42" viewBox="0 0 42 42" fill="none" xmlns="http://www.w3.org/2000/svg">
<path d="M6.18932 29.8016L4.84466 27.3979L3.5 24.9942M4.84466 27.3979L12.608 22.772M32.9216 38.5L23.9572 22.772L14.9928 38.5M28.551 6.86253L13.0242 16.1143C11.3092 17.1362 10.7216 19.3995 11.7117 21.1695L13.5046 24.3744C14.4948 26.1445 16.6878 26.7509 18.4028 25.729L33.9296 16.4772L28.551 6.86253ZM37.1549 16.6919C35.8686 17.4584 34.2239 17.0035 33.4812 15.676L28.999 7.66375C28.2564 6.33624 28.6971 4.63875 29.9834 3.87231C31.2697 3.10587 32.9144 3.56071 33.6571 4.88823L38.1393 12.9005C38.8819 14.228 38.4412 15.9255 37.1549 16.6919Z" stroke="#28303F" stroke-width="1.5" stroke-linecap="round" stroke-linejoin="round"/>
</svg>
