<svg width="40" height="40" viewBox="0 0 40 40" fill="none" xmlns="http://www.w3.org/2000/svg">
<path fill-rule="evenodd" clip-rule="evenodd" d="M19.25 9.25225C19.1146 9.19727 18.9842 9.12677 18.8614 9.04074C15.3219 6.56053 10.3545 5.43658 6.65726 5.01879C4.82741 4.81202 3.33337 6.34004 3.33337 8.2253V26.9999C3.33337 28.8852 4.82741 30.4138 6.65726 30.6205C10.3545 31.0383 15.3219 32.1623 18.8614 34.6425C18.9842 34.7285 19.1146 34.799 19.25 34.854V9.25225ZM20.75 34.854C20.8854 34.799 21.0159 34.7285 21.1387 34.6425C24.6782 32.1623 29.6455 31.0383 33.3428 30.6205C35.1727 30.4138 36.6667 28.8852 36.6667 26.9999V8.2253C36.6667 6.34004 35.1727 4.81202 33.3428 5.01879C29.6455 5.43658 24.6782 6.56053 21.1387 9.04074C21.0159 9.12677 20.8854 9.19727 20.75 9.25225V34.854ZM7.59221 13.6429C7.6556 13.2336 8.03882 12.9532 8.44816 13.0166C10.5948 13.349 13.0033 13.9035 15.2705 14.7803C15.6569 14.9297 15.849 15.364 15.6996 15.7503C15.5502 16.1366 15.1159 16.3287 14.7295 16.1793C12.5894 15.3517 10.2912 14.8199 8.21859 14.4989C7.80926 14.4355 7.52882 14.0523 7.59221 13.6429ZM8.44816 19.6832C8.03882 19.6198 7.6556 19.9003 7.59221 20.3096C7.52882 20.7189 7.80926 21.1022 8.21859 21.1656C9.26416 21.3275 10.369 21.5434 11.4832 21.8245C11.8849 21.9258 12.2926 21.6824 12.3939 21.2807C12.4952 20.8791 12.2518 20.4714 11.8502 20.37C10.6854 20.0762 9.53422 19.8514 8.44816 19.6832Z" fill="#435058"/>
</svg>
