<svg width="52" height="52" viewBox="0 0 52 52" fill="none" xmlns="http://www.w3.org/2000/svg">
<circle cx="26" cy="26" r="26" fill="#435058"/>
<path fill-rule="evenodd" clip-rule="evenodd" d="M21.8839 13.25H32.1164C34.8865 13.25 37.2506 15.2527 37.706 17.9851L39.003 25.7671C39.1469 26.6306 38.481 27.4167 37.6056 27.4167H34.0835C30.9539 27.4167 28.4168 29.9537 28.4168 33.0833V37.3333C28.4168 38.1157 27.7825 38.75 27.0001 38.75H19.5227C16.0211 38.75 13.3575 35.6058 13.9332 32.1517L16.2943 17.9851C16.7497 15.2527 19.1138 13.25 21.8839 13.25ZM27 24.2292C29.934 24.2292 32.3125 21.8507 32.3125 18.9167V17.5C32.3125 16.9132 31.8368 16.4375 31.25 16.4375C30.6632 16.4375 30.1875 16.9132 30.1875 17.5V18.9167C30.1875 20.6771 28.7604 22.1042 27 22.1042C25.2396 22.1042 23.8125 20.6771 23.8125 18.9167V17.5C23.8125 16.9132 23.3368 16.4375 22.75 16.4375C22.1632 16.4375 21.6875 16.9132 21.6875 17.5V18.9167C21.6875 21.8507 24.066 24.2292 27 24.2292Z" fill="#DCF763"/>
<rect x="29" y="28" width="11" height="11" rx="5.5" fill="#F97300"/>
<path d="M34.2037 36V31.376H33.4997L33.7637 30.4H35.1797V36H34.2037Z" fill="white"/>
</svg>
