<svg width="42" height="42" viewBox="0 0 42 42" fill="none" xmlns="http://www.w3.org/2000/svg">
<rect x="0.5" y="0.5" width="41" height="41" rx="11.5" fill="#DCF763"/>
<rect x="0.5" y="0.5" width="41" height="41" rx="11.5" stroke="#435058"/>
<path d="M21.001 11C15.4781 11 11.001 15.4771 11.001 21C11.001 25.9913 14.6578 30.1283 19.4385 30.8785V23.8906H16.8994V21H19.4385V18.7969C19.4385 16.2906 20.9314 14.9062 23.2156 14.9062C24.3097 14.9062 25.4541 15.1016 25.4541 15.1016V17.5625H24.1931C22.9509 17.5625 22.5635 18.3333 22.5635 19.1242V21H25.3369L24.8936 23.8906H22.5635V30.8785C27.3441 30.1283 31.001 25.9913 31.001 21C31.001 15.4771 26.5238 11 21.001 11Z" fill="#111111" fill-opacity="0.8"/>
</svg>
