<svg width="42" height="42" viewBox="0 0 42 42" fill="none" xmlns="http://www.w3.org/2000/svg">
<path d="M26.8479 26.8479C18.7737 34.922 9.61019 38.8493 6.38053 35.6196C3.15087 32.3899 7.07811 23.2264 15.1523 15.1522C23.2264 7.07798 32.39 3.15072 35.6196 6.3804C38.8493 9.61007 34.9221 18.7737 26.8479 26.8479Z" stroke="#28303F" stroke-width="1.5"/>
<path d="M26.8477 15.1521C34.9219 23.2263 38.8491 32.3899 35.6195 35.6196C32.3898 38.8493 23.2263 34.922 15.1521 26.8478C7.07795 18.7736 3.15071 9.61006 6.38038 6.38038C9.61004 3.15071 18.7736 7.07796 26.8477 15.1521Z" stroke="#28303F" stroke-width="1.5"/>
<path d="M24.5 21C24.5 22.933 22.933 24.5 21 24.5C19.067 24.5 17.5 22.933 17.5 21C17.5 19.067 19.067 17.5 21 17.5C22.933 17.5 24.5 19.067 24.5 21Z" stroke="#28303F" stroke-width="1.5"/>
</svg>
