<svg width="42" height="42" viewBox="0 0 42 42" fill="none" xmlns="http://www.w3.org/2000/svg">
<path d="M35.9372 28.1866C34.3122 29.8116 32.383 31.1007 30.2598 31.9801C28.1366 32.8596 25.861 33.3122 23.5629 33.3122M23.5629 33.3122C21.2647 33.3122 18.9891 32.8596 16.8659 31.9801C14.7427 31.1007 12.8135 29.8116 11.1885 28.1866C9.56347 26.5616 8.27443 24.6324 7.39498 22.5092C6.51552 20.386 6.06287 18.1104 6.06287 15.8122C6.06287 13.5141 6.51552 11.2385 7.39498 9.11527C8.27443 6.99208 9.56347 5.06289 11.1885 3.43787M23.5629 33.3122L23.5633 38.5622M23.5633 38.5622H18.3133M23.5633 38.5622H28.8133M35.8133 15.8122C35.8133 22.5777 30.3287 28.0622 23.5633 28.0622C16.7978 28.0622 11.3133 22.5777 11.3133 15.8122C11.3133 9.04676 16.7978 3.56225 23.5633 3.56225C30.3287 3.56225 35.8133 9.04676 35.8133 15.8122Z" stroke="#28303F" stroke-width="1.5" stroke-linecap="round"/>
</svg>
