<svg width="42" height="42" viewBox="0 0 42 42" fill="none" xmlns="http://www.w3.org/2000/svg">
<rect x="0.5" y="0.5" width="41" height="41" rx="11.5" fill="#DCF763"/>
<rect x="0.5" y="0.5" width="41" height="41" rx="11.5" stroke="#435058"/>
<path d="M22.0281 11.001C23.1535 11.0028 23.7238 11.0088 24.2166 11.0235L24.4107 11.0298C24.6349 11.0378 24.8561 11.0478 25.1228 11.0603C26.1869 11.1094 26.9128 11.2778 27.5503 11.5253C28.2094 11.7794 28.7661 12.1228 29.3219 12.6786C29.8769 13.2344 30.2203 13.7928 30.4753 14.4503C30.7219 15.0869 30.8903 15.8136 30.9403 16.8778C30.9522 17.1444 30.9618 17.3656 30.9697 17.5899L30.976 17.784C30.9906 18.2767 30.9973 18.8471 30.9994 19.9725L31.0002 20.7182C31.0003 20.8093 31.0003 20.9033 31.0003 21.0003L31.0002 21.2824L30.9996 22.0281C30.9977 23.1535 30.9918 23.7238 30.9771 24.2166L30.9707 24.4107C30.9628 24.6349 30.9528 24.8561 30.9403 25.1228C30.8911 26.1869 30.7219 26.9128 30.4753 27.5503C30.2211 28.2094 29.8769 28.7661 29.3219 29.3219C28.7661 29.8769 28.2069 30.2203 27.5503 30.4753C26.9128 30.7219 26.1869 30.8903 25.1228 30.9403C24.8561 30.9522 24.6349 30.9618 24.4107 30.9697L24.2166 30.976C23.7238 30.9906 23.1535 30.9973 22.0281 30.9994L21.2824 31.0002C21.1913 31.0003 21.0973 31.0003 21.0003 31.0003L20.7182 31.0002L19.9725 30.9996C18.8471 30.9977 18.2767 30.9918 17.784 30.9771L17.5899 30.9707C17.3656 30.9628 17.1444 30.9528 16.8778 30.9403C15.8136 30.8911 15.0886 30.7219 14.4503 30.4753C13.7919 30.2211 13.2344 29.8769 12.6786 29.3219C12.1228 28.7661 11.7803 28.2069 11.5253 27.5503C11.2778 26.9128 11.1103 26.1869 11.0603 25.1228C11.0484 24.8561 11.0387 24.6349 11.0309 24.4107L11.0246 24.2166C11.0099 23.7238 11.0033 23.1535 11.0011 22.0281L11.001 19.9725C11.0028 18.8471 11.0088 18.2767 11.0235 17.784L11.0298 17.5899C11.0378 17.3656 11.0478 17.1444 11.0603 16.8778C11.1094 15.8128 11.2778 15.0878 11.5253 14.4503C11.7794 13.7919 12.1228 13.2344 12.6786 12.6786C13.2344 12.1228 13.7928 11.7803 14.4503 11.5253C15.0878 11.2778 15.8128 11.1103 16.8778 11.0603C17.1444 11.0484 17.3656 11.0387 17.5899 11.0309L17.784 11.0246C18.2767 11.0099 18.8471 11.0033 19.9725 11.0011L22.0281 11.001ZM21.0003 16.0003C18.2374 16.0003 16.0003 18.2398 16.0003 21.0003C16.0003 23.7632 18.2398 26.0003 21.0003 26.0003C23.7632 26.0003 26.0003 23.7607 26.0003 21.0003C26.0003 18.2374 23.7607 16.0003 21.0003 16.0003ZM21.0003 18.0003C22.6572 18.0003 24.0003 19.3429 24.0003 21.0003C24.0003 22.6572 22.6576 24.0003 21.0003 24.0003C19.3434 24.0003 18.0003 22.6576 18.0003 21.0003C18.0003 19.3434 19.3429 18.0003 21.0003 18.0003ZM26.2503 14.5003C25.561 14.5003 25.0003 15.0602 25.0003 15.7494C25.0003 16.4387 25.5602 16.9994 26.2503 16.9994C26.9395 16.9994 27.5003 16.4395 27.5003 15.7494C27.5003 15.0602 26.9386 14.4994 26.2503 14.5003Z" fill="#111111" fill-opacity="0.8"/>
</svg>
