<svg width="27" height="24" viewBox="0 0 27 24" fill="none" xmlns="http://www.w3.org/2000/svg">
<path opacity="0.4" d="M0 5.33333C0 2.38781 2.38781 0 5.33333 0H21.3333C24.2789 0 26.6667 2.38781 26.6667 5.33333V18.6667C26.6667 21.6122 24.2789 24 21.3333 24H5.33333C2.38781 24 0 21.6122 0 18.6667V5.33333Z" fill="#28303F"/>
<path fill-rule="evenodd" clip-rule="evenodd" d="M4.5014 6.11215C4.80775 5.65263 5.42862 5.52845 5.88815 5.8348L10.9298 9.19587C12.3853 10.1662 14.2816 10.1662 15.7372 9.19587L20.7788 5.8348C21.2383 5.52845 21.8591 5.65263 22.1655 6.11215C22.4719 6.57168 22.3477 7.19255 21.8882 7.4989L16.8466 10.86C14.7192 12.2782 11.9477 12.2782 9.82035 10.86L4.77875 7.4989C4.31922 7.19255 4.19505 6.57168 4.5014 6.11215Z" fill="#28303F"/>
</svg>
