<svg width="42" height="42" viewBox="0 0 42 42" fill="none" xmlns="http://www.w3.org/2000/svg">
<path d="M35 22.75H35.75V22H35V22.75ZM21 28V27.25C20.5858 27.25 20.25 27.5858 20.25 28H21ZM28 28H28.75C28.75 27.5858 28.4142 27.25 28 27.25V28ZM28 38.5L27.4697 39.0303C27.6842 39.2448 28.0068 39.309 28.287 39.1929C28.5673 39.0768 28.75 38.8033 28.75 38.5H28ZM21 38.5H20.25C20.25 38.8033 20.4327 39.0768 20.713 39.1929C20.9932 39.309 21.3158 39.2448 21.5303 39.0303L21 38.5ZM24.5 35L25.0303 34.4697C24.7374 34.1768 24.2626 34.1768 23.9697 34.4697L24.5 35ZM14 9.75C13.5858 9.75 13.25 10.0858 13.25 10.5C13.25 10.9142 13.5858 11.25 14 11.25V9.75ZM28 11.25C28.4142 11.25 28.75 10.9142 28.75 10.5C28.75 10.0858 28.4142 9.75 28 9.75V11.25ZM14 15.875C13.5858 15.875 13.25 16.2108 13.25 16.625C13.25 17.0392 13.5858 17.375 14 17.375V15.875ZM21 17.375C21.4142 17.375 21.75 17.0392 21.75 16.625C21.75 16.2108 21.4142 15.875 21 15.875V17.375ZM12.25 4.25H29.75V2.75H12.25V4.25ZM34.25 8.75V28H35.75V8.75H34.25ZM7.75 28V8.75H6.25V28H7.75ZM29.75 32.5H29V34H29.75V32.5ZM21 32.5H12.25V34H21V32.5ZM6.25 28C6.25 31.3137 8.93629 34 12.25 34V32.5C9.76472 32.5 7.75 30.4853 7.75 28H6.25ZM34.25 28C34.25 30.4853 32.2353 32.5 29.75 32.5V34C33.0637 34 35.75 31.3137 35.75 28H34.25ZM29.75 4.25C32.2353 4.25 34.25 6.26472 34.25 8.75H35.75C35.75 5.43629 33.0637 2.75 29.75 2.75V4.25ZM12.25 2.75C8.93629 2.75 6.25 5.43629 6.25 8.75H7.75C7.75 6.26472 9.76472 4.25 12.25 4.25V2.75ZM12.25 23.5H35V22H12.25V23.5ZM34.25 22.75V28H35.75V22.75H34.25ZM12.25 22C8.93629 22 6.25 24.6863 6.25 28H7.75C7.75 25.5147 9.76472 23.5 12.25 23.5V22ZM21 28.75H28V27.25H21V28.75ZM27.25 28V38.5H28.75V28H27.25ZM21.75 38.5V28H20.25V38.5H21.75ZM28.5303 37.9697L25.0303 34.4697L23.9697 35.5303L27.4697 39.0303L28.5303 37.9697ZM23.9697 34.4697L20.4697 37.9697L21.5303 39.0303L25.0303 35.5303L23.9697 34.4697ZM14 11.25H28V9.75H14V11.25ZM14 17.375H21V15.875H14V17.375Z" fill="#28303F"/>
</svg>
