<svg width="42" height="42" viewBox="0 0 42 42" fill="none" xmlns="http://www.w3.org/2000/svg">
<path d="M21 10.5623V27.1862M8.75 14C5.85051 14 3.5 16.3505 3.5 19.25V28C3.5 31.866 6.63401 35 10.5 35H31.5C35.366 35 38.5 31.866 38.5 28V19.25C38.5 16.3505 36.1495 14 33.25 14M11.1931 7.01315C13.9106 7.3056 17.5616 8.09237 20.1631 9.82852C20.6631 10.1622 21.3369 10.1622 21.8369 9.82852C24.4384 8.09237 28.0894 7.3056 30.8069 7.01315C32.1519 6.86841 33.25 7.93803 33.25 9.25771V22.3999C33.25 23.7196 32.1519 24.7896 30.8069 24.9344C28.0894 25.2268 24.4384 26.0136 21.8369 27.7497C21.3369 28.0834 20.6631 28.0834 20.1631 27.7497C17.5616 26.0136 13.9106 25.2268 11.1931 24.9344C9.84812 24.7896 8.75 23.7196 8.75 22.3999V9.25771C8.75 7.93803 9.84812 6.86841 11.1931 7.01315Z" stroke="#28303F" stroke-width="1.5" stroke-linecap="round" stroke-linejoin="round"/>
</svg>
