<svg width="42" height="42" viewBox="0 0 42 42" fill="none" xmlns="http://www.w3.org/2000/svg">
<path d="M7 26.25H26.25C29.1495 26.25 31.5 28.6005 31.5 31.5C31.5 34.3995 29.1495 36.75 26.25 36.75H7M7 26.25V36.75M7 26.25H3.5M7 36.75H3.5M7 5.25H26.25C29.1495 5.25 31.5 7.60051 31.5 10.5C31.5 13.3995 29.1495 15.75 26.25 15.75H7M7 5.25V15.75M7 5.25H3.5M7 15.75H3.5M35 15.75H15.75C12.8505 15.75 10.5 18.1005 10.5 21C10.5 23.8995 12.8505 26.25 15.75 26.25H35M35 15.75V26.25M35 15.75H38.5M35 26.25H38.5" stroke="#28303F" stroke-width="1.5" stroke-linecap="round" stroke-linejoin="round"/>
</svg>
