<svg width="42" height="42" viewBox="0 0 42 42" fill="none" xmlns="http://www.w3.org/2000/svg">
<rect x="0.5" y="0.5" width="41" height="41" rx="11.5" fill="#DCF763"/>
<rect x="0.5" y="0.5" width="41" height="41" rx="11.5" stroke="#435058"/>
<path d="M31.2125 14.656C30.4491 14.9937 29.6395 15.2155 28.8106 15.3141C29.6839 14.7913 30.3374 13.9689 30.6493 13C29.8287 13.4876 28.9305 13.8308 27.9938 14.0146C27.2031 13.1711 26.098 12.693 24.9418 12.6943C22.6326 12.6943 20.7597 14.5666 20.7597 16.8768C20.7597 17.2046 20.7973 17.5224 20.8676 17.8291C17.3905 17.654 14.3101 15.99 12.2468 13.4594C11.8753 14.0977 11.6801 14.8232 11.681 15.5617C11.681 17.0126 12.4196 18.2932 13.5415 19.043C12.8774 19.022 12.2279 18.8426 11.6472 18.5197C11.6465 18.5373 11.6465 18.5549 11.6465 18.5715C11.6465 20.5984 13.0882 22.2892 15.002 22.6731C14.6428 22.7703 14.2723 22.8194 13.9002 22.8191C13.63 22.8191 13.3677 22.7942 13.1128 22.7453C13.6453 24.4065 15.1889 25.6159 17.0196 25.6491C15.5381 26.8118 13.7087 27.4426 11.8254 27.4399C11.4921 27.4402 11.1591 27.4205 10.8281 27.3811C12.74 28.6102 14.9655 29.2625 17.2384 29.2601C24.9316 29.2601 29.138 22.8875 29.138 17.3611C29.138 17.1803 29.1336 16.9989 29.1256 16.82C29.9443 16.2284 30.651 15.4957 31.2125 14.656Z" fill="#111111" fill-opacity="0.8"/>
</svg>
