<svg width="42" height="42" viewBox="0 0 42 42" fill="none" xmlns="http://www.w3.org/2000/svg">
<rect x="0.5" y="0.5" width="41" height="41" rx="11.5" fill="#DCF763"/>
<rect x="0.5" y="0.5" width="41" height="41" rx="11.5" stroke="#435058"/>
<path d="M21.2439 13C21.778 13.0029 23.1143 13.0159 24.5341 13.0727L25.0375 13.0947C26.467 13.1624 27.8953 13.278 28.6037 13.4755C29.5486 13.741 30.2913 14.5155 30.5423 15.4973C30.942 17.0564 30.992 20.0994 30.9982 20.8358L30.9991 20.9884V20.9991C30.9991 20.9991 30.9991 21.0028 30.9991 21.0099L30.9982 21.1625C30.992 21.8989 30.942 24.9419 30.5423 26.501C30.2878 27.4864 29.5451 28.261 28.6037 28.5228C27.8953 28.7203 26.467 28.8359 25.0375 28.9036L24.5341 28.9255C23.1143 28.9824 21.778 28.9953 21.2439 28.9983L21.0095 28.9991H20.9991C20.9991 28.9991 20.9956 28.9991 20.9887 28.9991L20.7545 28.9983C19.6241 28.9921 14.8977 28.941 13.3945 28.5228C12.4496 28.2573 11.7069 27.4828 11.4559 26.501C11.0562 24.9419 11.0062 21.8989 11 21.1625V20.8358C11.0062 20.0994 11.0562 17.0564 11.4559 15.4973C11.7104 14.5119 12.4531 13.7373 13.3945 13.4755C14.8977 13.0572 19.6241 13.0062 20.7545 13H21.2439ZM18.9991 17.4991V24.4991L24.9991 20.9991L18.9991 17.4991Z" fill="#111111" fill-opacity="0.8"/>
</svg>
